<svg xmlns="http://www.w3.org/2000/svg"  viewBox="0 0 100 100" width="100px" height="100px"><path d="M26.5,97C20.71,97,16,92.29,16,86.5v-69C16,11.71,20.71,7,26.5,7h51C83.29,7,88,11.71,88,17.5v69 C88,92.29,83.29,97,77.5,97H26.5z" opacity=".35"/><path fill="#f2f2f2" d="M24.5,95C18.71,95,14,90.29,14,84.5v-69C14,9.71,18.71,5,24.5,5h51C81.29,5,86,9.71,86,15.5v69 C86,90.29,81.29,95,75.5,95H24.5z"/><path fill="#d9eeff" d="M75.5,89.5h-51c-2.209,0-4-1.791-4-4v-71c0-2.209,1.791-4,4-4h51c2.209,0,4,1.791,4,4v71 C79.5,87.709,77.709,89.5,75.5,89.5z"/><path fill="none" stroke="#40396e" stroke-linecap="round" stroke-linejoin="round" stroke-miterlimit="10" stroke-width="3" d="M75.5,88.5h-51c-2.209,0-4-1.791-4-4v-69c0-2.209,1.791-4,4-4h51c2.209,0,4,1.791,4,4v69C79.5,86.709,77.709,88.5,75.5,88.5z"/><path fill="#70bfff" d="M69.5,77h-39c-0.828,0-1.5-0.672-1.5-1.5l0,0c0-0.828,0.672-1.5,1.5-1.5h39 c0.828,0,1.5,0.672,1.5,1.5l0,0C71,76.328,70.328,77,69.5,77z"/><path fill="#70bfff" d="M52.5,67h-22c-0.828,0-1.5-0.672-1.5-1.5l0,0c0-0.828,0.672-1.5,1.5-1.5h22 c0.828,0,1.5,0.672,1.5,1.5l0,0C54,66.328,53.328,67,52.5,67z"/><path fill="#70bfff" d="M69.5,67h-8c-0.828,0-1.5-0.672-1.5-1.5l0,0c0-0.828,0.672-1.5,1.5-1.5h8c0.828,0,1.5,0.672,1.5,1.5 l0,0C71,66.328,70.328,67,69.5,67z"/><path fill="#70bfff" d="M69.5,57h-39c-0.828,0-1.5-0.672-1.5-1.5l0,0c0-0.828,0.672-1.5,1.5-1.5h39 c0.828,0,1.5,0.672,1.5,1.5l0,0C71,56.328,70.328,57,69.5,57z"/><circle cx="42" cy="28" r="6" fill="#70bfff"/><path fill="#70bfff" d="M42,37L42,37c-5.523,0-10,4.477-10,10h20C52,41.477,47.523,37,42,37z"/><path fill="#70bfff" d="M69.5,27h-11c-0.828,0-1.5-0.672-1.5-1.5v0c0-0.828,0.672-1.5,1.5-1.5h11c0.828,0,1.5,0.672,1.5,1.5 v0C71,26.328,70.328,27,69.5,27z"/><path fill="#70bfff" d="M69.5,36h-11c-0.828,0-1.5-0.672-1.5-1.5l0,0c0-0.828,0.672-1.5,1.5-1.5h11 c0.828,0,1.5,0.672,1.5,1.5l0,0C71,35.328,70.328,36,69.5,36z"/><path fill="#70bfff" d="M69.5,45h-11c-0.828,0-1.5-0.672-1.5-1.5l0,0c0-0.828,0.672-1.5,1.5-1.5h11 c0.828,0,1.5,0.672,1.5,1.5l0,0C71,44.328,70.328,45,69.5,45z"/></svg>